<?xml version="1.0" standalone="no"?>
<!DOCTYPE svg PUBLIC "-//W3C//DTD SVG 1.1//EN"
  "http://www.w3.org/Graphics/SVG/1.1/DTD/svg11.dtd">
<svg width="102mm" height="18mm" viewBox="-46 -29.5 102 18" xmlns="http://www.w3.org/2000/svg" version="1.1">
	<title>svgOutput</title>
	<desc>made with tinkercad</desc>
<path d="M 17.5 -28.5 L 17.5 -25.49799919128418 L 20.003000259399414 -25.49799919128418 L 30.000999450683594 -25.49799919128418 L 30.000999450683594 -28.5 L 42.50199890136719 -28.5 L 42.50199890136719 -25.49799919128418 L 51 -25.49799919128418 L 51 -25.5 L 55 -25.5 L 55 -22.5 L 55 -22.101999282836914 L 51.99800109863281 -22.101999282836914 L 51.99800109863281 -18.898000717163086 L 51.99800109863281 -14.5 L 55 -14.5 L 55 -13 L 51.99800109863281 -13 L 51.99800109863281 -12.5 L 51 -12.5 L 42.50199890136719 -12.5 L 30.000999450683594 -12.5 L 20.003000259399414 -12.5 L -42.00199890136719 -12.5 L -42.00299835205078 -12.5 L -45 -12.5 L -45 -15.696999549865723 L -42.00299835205078 -15.696999549865723 L -42.00299835205078 -15.39799976348877 L -42.00199890136719 -15.39799976348877 L 20.003000259399414 -15.39799976348877 L 20.003000259399414 -15.498000144958496 L 20.003000259399414 -18.503000259399414 L 20.003000259399414 -18.60300064086914 L 17.5 -18.60300064086914 L 5 -18.60300064086914 L -7.500999927520752 -18.60300064086914 L -20.00200080871582 -18.60300064086914 L -32.50199890136719 -18.60300064086914 L -41.99800109863281 -18.60300064086914 L -41.99800109863281 -18.89900016784668 L -42.00199890136719 -18.89900016784668 L -42.00299835205078 -18.89900016784668 L -45 -18.89900016784668 L -45 -22.10099983215332 L -42.00299835205078 -22.10099983215332 L -42.00199890136719 -22.10099983215332 L -41.99800109863281 -22.10099983215332 L -41.99800109863281 -25.30299949645996 L -42.00199890136719 -25.30299949645996 L -42.00299835205078 -25.30299949645996 L -45 -25.30299949645996 L -45 -28.5 L -42.00299835205078 -28.5 L -42.00199890136719 -28.5 L -41.99800109863281 -28.5 L -32.50199890136719 -28.5 L -32.50199890136719 -25.49799919128418 L -20.00200080871582 -25.49799919128418 L -20.00200080871582 -28.5 L -7.500999927520752 -28.5 L -7.500999927520752 -25.49799919128418 L 5 -25.49799919128418 L 5 -28.5 L 17.5 -28.5 z" fill="none" stroke="rgb(255,0,0)" stroke-width="0.001mm" />
</svg>