<?xml version="1.0" standalone="no"?>
<!DOCTYPE svg PUBLIC "-//W3C//DTD SVG 1.1//EN"
  "http://www.w3.org/Graphics/SVG/1.1/DTD/svg11.dtd">
<svg width="102mm" height="18mm" viewBox="28.5 -23.5 102 18" xmlns="http://www.w3.org/2000/svg" version="1.1">
	<title>svgOutput</title>
	<desc>made with tinkercad</desc>
<path d="M 29.5 -9.697999954223633 L 32.49800109863281 -9.697999954223633 L 32.50199890136719 -9.697999954223633 L 32.50199890136719 -12.89900016784668 L 32.49800109863281 -12.89900016784668 L 29.5 -12.89900016784668 L 29.5 -16.10099983215332 L 32.49800109863281 -16.10099983215332 L 32.50199890136719 -16.10099983215332 L 32.50199890136719 -16.398000717163086 L 41.99800109863281 -16.398000717163086 L 54.49800109863281 -16.398000717163086 L 66.9990005493164 -16.398000717163086 L 79.5 -16.398000717163086 L 92 -16.398000717163086 L 94.50299835205078 -16.398000717163086 L 104.5009994506836 -16.398000717163086 L 117.00199890136719 -16.398000717163086 L 117.00199890136719 -19.601999282836914 L 104.5009994506836 -19.601999282836914 L 94.50299835205078 -19.601999282836914 L 32.49800109863281 -19.601999282836914 L 32.49800109863281 -19.50200080871582 L 32.49800109863281 -19.30299949645996 L 29.5 -19.30299949645996 L 29.5 -19.68503189086914 L 32.49800109863281 -20.810218811035156 L 37.000335693359375 -22.5 L 94.50299835205078 -22.5 L 104.5009994506836 -22.5 L 117.00199890136719 -22.5 L 126.49800109863281 -22.5 L 126.49800109863281 -22 L 129.5 -22 L 129.5 -20.5 L 126.49800109863281 -20.5 L 126.49800109863281 -19.29800033569336 L 126.49800109863281 -16.097999572753906 L 126.49800109863281 -12.89799976348877 L 129.5 -12.89799976348877 L 129.5 -9.503000259399414 L 129.5 -9.5 L 125.5 -9.5 L 125.5 -9.503000259399414 L 117.00199890136719 -9.503000259399414 L 117.00199890136719 -6.5 L 104.5009994506836 -6.5 L 104.5009994506836 -9.503000259399414 L 94.50299835205078 -9.503000259399414 L 92 -9.503000259399414 L 92 -6.5 L 79.5 -6.5 L 79.5 -9.503000259399414 L 66.9990005493164 -9.503000259399414 L 66.9990005493164 -6.5 L 54.49800109863281 -6.5 L 54.49800109863281 -9.503000259399414 L 41.99800109863281 -9.503000259399414 L 41.99800109863281 -6.5 L 32.50199890136719 -6.5 L 32.49800109863281 -6.5 L 29.5 -6.5 L 29.5 -9.697999954223633 z" fill="none" stroke="rgb(255,0,0)" stroke-width="0.001mm" />
</svg>