<?xml version="1.0" standalone="no"?>
<!DOCTYPE svg PUBLIC "-//W3C//DTD SVG 1.1//EN"
  "http://www.w3.org/Graphics/SVG/1.1/DTD/svg11.dtd">
<svg width="108mm" height="71mm" viewBox="-49 -11 108 71" xmlns="http://www.w3.org/2000/svg" version="1.1">
	<title>svgOutput</title>
	<desc>made with tinkercad</desc>
<path d="M 58 59 L 42.50299835205078 59 L 30.00200080871582 59 L 17.500999450683594 59 L 5 59 L -7.5 59 L -20.000999450683594 59 L -32.50199890136719 59 L -45.00299835205078 59 L -48 59 L -48 -10 L -45.00299835205078 -10 L -32.50199890136719 -10 L -20.000999450683594 -10 L -7.5 -10 L 5 -10 L 17.500999450683594 -10 L 30.00200080871582 -10 L 42.50299835205078 -10 L 58 -10 L 58 5.5970001220703125 L 58 18.198999404907227 L 58 30.801000595092773 L 58 43.40299987792969 L 58 59 M -20.000999450683594 -3.997999906539917 L -7.5 -3.997999906539917 L -7.5 -7.002999782562256 L -20.000999450683594 -7.002999782562256 L -20.000999450683594 -3.997999906539917 M -7.5 56.00299835205078 L -7.5 52.99800109863281 L -20.000999450683594 52.99800109863281 L -20.000999450683594 56.00299835205078 L -7.5 56.00299835205078 M -32.50199890136719 -7.002999782562256 L -45.00299835205078 -7.002999782562256 L -45.00299835205078 -3.997999906539917 L -32.50199890136719 -3.997999906539917 L -32.50199890136719 -7.002999782562256 M 5 56.00299835205078 L 17.500999450683594 56.00299835205078 L 17.500999450683594 52.99800109863281 L 5 52.99800109863281 L 5 56.00299835205078 M -41.99800109863281 30.801000595092773 L -45.00299835205078 30.801000595092773 L -45.00299835205078 43.40299987792969 L -41.99800109863281 43.40299987792969 L -41.99800109863281 30.801000595092773 M 17.500999450683594 -7.002999782562256 L 5 -7.002999782562256 L 5 -3.997999906539917 L 17.500999450683594 -3.997999906539917 L 17.500999450683594 -7.002999782562256 M 30.00200080871582 56.00299835205078 L 42.50299835205078 56.00299835205078 L 42.50299835205078 52.99800109863281 L 30.00200080871582 52.99800109863281 L 30.00200080871582 56.00299835205078 M -41.99800109863281 5.5970001220703125 L -45.00299835205078 5.5970001220703125 L -45.00299835205078 18.198999404907227 L -41.99800109863281 18.198999404907227 L -41.99800109863281 5.5970001220703125 M -32.50199890136719 52.99800109863281 L -45.00299835205078 52.99800109863281 L -45.00299835205078 56.00299835205078 L -32.50199890136719 56.00299835205078 L -32.50199890136719 52.99800109863281 M 51.99800109863281 30.801000595092773 L 51.99800109863281 43.40299987792969 L 55.00299835205078 43.40299987792969 L 55.00299835205078 30.801000595092773 L 51.99800109863281 30.801000595092773 M 30.00200080871582 -3.997999906539917 L 42.50299835205078 -3.997999906539917 L 42.50299835205078 -7.002999782562256 L 30.00200080871582 -7.002999782562256 L 30.00200080871582 -3.997999906539917 M 51.99800109863281 5.5970001220703125 L 51.99800109863281 18.198999404907227 L 55.00299835205078 18.198999404907227 L 55.00299835205078 5.5970001220703125 L 51.99800109863281 5.5970001220703125 z" fill="none" stroke="rgb(255,0,0)" stroke-width="0.001mm" />
</svg>