<?xml version="1.0" standalone="no"?>
<!DOCTYPE svg PUBLIC "-//W3C//DTD SVG 1.1//EN"
  "http://www.w3.org/Graphics/SVG/1.1/DTD/svg11.dtd">
<svg width="101.99499320983887mm" height="64.99600112438202mm" viewBox="28.50200080871582 -1.9980000257492065 101.99499320983887 64.99600112438202" xmlns="http://www.w3.org/2000/svg" version="1.1">
	<title>svgOutput</title>
	<desc>made with tinkercad</desc>
<path d="M 29.50200080871582 11.597000122070312 L 29.50200080871582 2.003000020980835 L 41.99800109863281 2.003000020980835 L 41.99800109863281 -0.9980000257492064 L 54.499000549316406 -0.9980000257492064 L 54.499000549316406 2.003000020980835 L 67 2.003000020980835 L 67 -0.9980000257492064 L 79.5 -0.9980000257492064 L 79.5 2.003000020980835 L 92.0009994506836 2.003000020980835 L 92.0009994506836 -0.9980000257492064 L 104.50199890136719 -0.9980000257492064 L 104.50199890136719 2.003000020980835 L 117.00299835205078 2.003000020980835 L 117.00299835205078 -0.9980000257492064 L 129.4969940185547 -0.9980000257492064 L 129.4969940185547 11.597000122070312 L 126.49800109863281 11.597000122070312 L 126.49800109863281 24.198999404907227 L 129.4969940185547 24.198999404907227 L 129.4969940185547 36.80099868774414 L 126.49800109863281 36.80099868774414 L 126.49800109863281 49.40299987792969 L 129.4969940185547 49.40299987792969 L 129.4969940185547 61.99800109863281 L 117.00299835205078 61.99800109863281 L 117.00299835205078 58.99800109863281 L 104.50199890136719 58.99800109863281 L 104.50199890136719 61.99800109863281 L 92.0009994506836 61.99800109863281 L 92.0009994506836 58.99800109863281 L 79.5 58.99800109863281 L 79.5 61.99800109863281 L 67 61.99800109863281 L 67 58.99800109863281 L 54.499000549316406 58.99800109863281 L 54.499000549316406 61.99800109863281 L 41.99800109863281 61.99800109863281 L 41.99800109863281 58.99800109863281 L 29.50200080871582 58.99800109863281 L 29.50200080871582 49.40299987792969 L 32.50199890136719 49.40299987792969 L 32.50199890136719 36.80099868774414 L 29.50200080871582 36.80099868774414 L 29.50200080871582 24.198999404907227 L 32.50199890136719 24.198999404907227 L 32.50199890136719 11.597000122070312 L 29.50200080871582 11.597000122070312 z" fill="none" stroke="rgb(255,0,0)" stroke-width="0.001mm" />
</svg>