<?xml version="1.0" standalone="no"?>
<!DOCTYPE svg PUBLIC "-//W3C//DTD SVG 1.1//EN"
  "http://www.w3.org/Graphics/SVG/1.1/DTD/svg11.dtd">
<svg width="102mm" height="18mm" viewBox="-46 64 102 18" xmlns="http://www.w3.org/2000/svg" version="1.1">
	<title>svgOutput</title>
	<desc>made with tinkercad</desc>
<path d="M 5 81 L 5 77.99800109863281 L -7.500999927520752 77.99800109863281 L -7.500999927520752 81 L -20.00200080871582 81 L -20.00200080871582 77.99800109863281 L -32.50199890136719 77.99800109863281 L -32.50199890136719 81 L -41.99800109863281 81 L -42.00199890136719 81 L -42.00299835205078 81 L -45 81 L -45 77.8030014038086 L -42.00299835205078 77.8030014038086 L -42.00199890136719 77.8030014038086 L -41.99800109863281 77.8030014038086 L -41.99800109863281 74.60099792480469 L -42.00199890136719 74.60099792480469 L -42.00299835205078 74.60099792480469 L -45 74.60099792480469 L -45 71.39900207519531 L -42.00299835205078 71.39900207519531 L -42.00199890136719 71.39900207519531 L -41.99800109863281 71.39900207519531 L -41.99800109863281 71.10299682617188 L -32.50199890136719 71.10299682617188 L -20.00200080871582 71.10299682617188 L -7.500999927520752 71.10299682617188 L 5 71.10299682617188 L 17.5 71.10299682617188 L 20.003000259399414 71.10299682617188 L 20.003000259399414 71.00299835205078 L 20.003000259399414 67.99800109863281 L 20.003000259399414 67.89800262451172 L -42.00199890136719 67.89800262451172 L -42.00299835205078 67.89800262451172 L -42.00299835205078 68.197998046875 L -45 68.197998046875 L -45 65 L -42.00299835205078 65 L -42.00199890136719 65 L 20.003000259399414 65 L 30.000999450683594 65 L 42.50199890136719 65 L 51 65 L 51.99800109863281 65 L 51.99800109863281 65.5 L 55 65.5 L 55 67 L 51.99800109863281 67 L 51.99800109863281 68.2030029296875 L 51.99800109863281 71.40299987792969 L 51.99800109863281 74.60299682617188 L 55 74.60299682617188 L 55 75 L 55 78 L 51 78 L 51 77.99800109863281 L 42.50199890136719 77.99800109863281 L 42.50199890136719 81 L 30.000999450683594 81 L 30.000999450683594 77.99800109863281 L 20.003000259399414 77.99800109863281 L 17.5 77.99800109863281 L 17.5 81 L 5 81 z" fill="none" stroke="rgb(255,0,0)" stroke-width="0.001mm" />
</svg>