<?xml version="1.0" standalone="no"?>
<!DOCTYPE svg PUBLIC "-//W3C//DTD SVG 1.1//EN"
  "http://www.w3.org/Graphics/SVG/1.1/DTD/svg11.dtd">
<svg width="102mm" height="18mm" viewBox="28.5 69 102 18" xmlns="http://www.w3.org/2000/svg" version="1.1">
	<title>svgOutput</title>
	<desc>made with tinkercad</desc>
<path d="M 29.5 82.8030014038086 L 32.49800109863281 82.8030014038086 L 32.50199890136719 82.8030014038086 L 32.50199890136719 79.60099792480469 L 32.49800109863281 79.60099792480469 L 29.5 79.60099792480469 L 29.5 76.39900207519531 L 32.49800109863281 76.39900207519531 L 32.50199890136719 76.39900207519531 L 32.50199890136719 76.10299682617188 L 41.99800109863281 76.10299682617188 L 54.49800109863281 76.10299682617188 L 66.9990005493164 76.10299682617188 L 79.5 76.10299682617188 L 92 76.10299682617188 L 94.50299835205078 76.10299682617188 L 104.5009994506836 76.10299682617188 L 117.00199890136719 76.10299682617188 L 117.00199890136719 72.89800262451172 L 104.5009994506836 72.89800262451172 L 94.50299835205078 72.89800262451172 L 32.49800109863281 72.89800262451172 L 32.49800109863281 72.99800109863281 L 32.49800109863281 73.197998046875 L 29.5 73.197998046875 L 29.5 72.81403350830078 L 32.49800109863281 71.68921661376953 L 37.000335693359375 70 L 94.50299835205078 70 L 104.5009994506836 70 L 117.00199890136719 70 L 126.49800109863281 70 L 126.49800109863281 70.5 L 129.5 70.5 L 129.5 72 L 126.49800109863281 72 L 126.49800109863281 76.39800262451172 L 126.49800109863281 79.60299682617188 L 129.5 79.60299682617188 L 129.5 82.7979965209961 L 129.5 82.99800109863281 L 129.5 83 L 125.5 83 L 125.5 82.99800109863281 L 117.00199890136719 82.99800109863281 L 117.00199890136719 86 L 104.5009994506836 86 L 104.5009994506836 82.99800109863281 L 94.50299835205078 82.99800109863281 L 92 82.99800109863281 L 92 86 L 79.5 86 L 79.5 82.99800109863281 L 66.9990005493164 82.99800109863281 L 66.9990005493164 86 L 54.49800109863281 86 L 54.49800109863281 82.99800109863281 L 41.99800109863281 82.99800109863281 L 41.99800109863281 86 L 32.50199890136719 86 L 32.49800109863281 86 L 29.5 86 L 29.5 82.8030014038086 z" fill="none" stroke="rgb(255,0,0)" stroke-width="0.001mm" />
</svg>