<?xml version="1.0" standalone="no"?>
<!DOCTYPE svg PUBLIC "-//W3C//DTD SVG 1.1//EN"
  "http://www.w3.org/Graphics/SVG/1.1/DTD/svg11.dtd">
<svg width="14.998000621795654mm" height="64.99600112438202mm" viewBox="6.000999927520752 -1.9980000257492065 14.998000621795654 64.99600112438202" xmlns="http://www.w3.org/2000/svg" version="1.1">
	<title>svgOutput</title>
	<desc>made with tinkercad</desc>
<path d="M 19.80299949645996 61.99800109863281 L 16.601999282836914 61.99800109863281 L 16.601999282836914 58.99800109863281 L 13.401000022888184 58.99800109863281 L 13.401000022888184 61.99800109863281 L 10.199999809265137 61.99800109863281 L 10.199999809265137 58.99800109863281 L 10.003999710083008 58.99800109863281 L 10.003999710083008 49.402000427246094 L 7.000999927520752 49.402000427246094 L 7.000999927520752 36.80099868774414 L 10.003999710083008 36.80099868774414 L 10.003999710083008 24.198999404907227 L 7.000999927520752 24.198999404907227 L 7.000999927520752 11.597999572753906 L 10.003999710083008 11.597999572753906 L 10.003999710083008 2.003000020980835 L 10.199999809265137 2.003000020980835 L 10.199999809265137 -0.9980000257492064 L 13.401000022888184 -0.9980000257492064 L 13.401000022888184 2.003000020980835 L 16.601999282836914 2.003000020980835 L 16.601999282836914 -0.9980000257492064 L 19.80299949645996 -0.9980000257492064 L 19.80299949645996 2.003000020980835 L 19.999000549316406 2.003000020980835 L 19.999000549316406 11.597999572753906 L 19.999000549316406 24.198999404907227 L 19.999000549316406 36.80099868774414 L 19.999000549316406 49.402000427246094 L 19.999000549316406 58.99800109863281 L 19.80299949645996 58.99800109863281 L 19.80299949645996 61.99800109863281 z" fill="none" stroke="rgb(255,0,0)" stroke-width="0.001mm" />
</svg>