<?xml version="1.0" standalone="no"?>
<!DOCTYPE svg PUBLIC "-//W3C//DTD SVG 1.1//EN"
  "http://www.w3.org/Graphics/SVG/1.1/DTD/svg11.dtd">
<svg width="18mm" height="71mm" viewBox="-71.5 -11 18 71" xmlns="http://www.w3.org/2000/svg" version="1.1">
	<title>svgOutput</title>
	<desc>made with tinkercad</desc>
<path d="M -54.5 59 L -57.698001861572266 59 L -60.900001525878906 59 L -64.10099792480469 59 L -67.302001953125 59 L -67.49800109863281 59 L -67.49800109863281 56.00299835205078 L -67.302001953125 56.00299835205078 L -67.302001953125 56 L -67.302001953125 52.99800109863281 L -67.49800109863281 52.99800109863281 L -67.49800109863281 43.402000427246094 L -70.5 43.402000427246094 L -70.5 30.799999237060547 L -67.49800109863281 30.799999237060547 L -67.49800109863281 18.198999404907227 L -70.5 18.198999404907227 L -70.5 5.5980000495910645 L -67.49800109863281 5.5980000495910645 L -67.49800109863281 -3.997999906539917 L -67.302001953125 -3.997999906539917 L -67.302001953125 -7 L -67.302001953125 -7.002999782562256 L -67.49800109863281 -7.002999782562256 L -67.49800109863281 -10 L -67.302001953125 -10 L -64.10099792480469 -10 L -60.900001525878906 -10 L -57.698001861572266 -10 L -54.5 -10 L -54.5 -7.002999782562256 L -57.698001861572266 -7.002999782562256 L -57.698001861572266 -7 L -57.698001861572266 -3.997999906539917 L -54.5 -3.997999906539917 L -54.5 5.5980000495910645 L -54.5 18.198999404907227 L -54.5 30.799999237060547 L -54.5 43.402000427246094 L -54.5 52.99800109863281 L -57.698001861572266 52.99800109863281 L -57.698001861572266 56 L -57.698001861572266 56.00299835205078 L -54.5 56.00299835205078 L -54.5 59 M -60.900001525878906 56.00299835205078 L -60.900001525878906 56 L -60.900001525878906 52.99800109863281 L -64.10099792480469 52.99800109863281 L -64.10099792480469 56 L -64.10099792480469 56.00299835205078 L -60.900001525878906 56.00299835205078 M -64.10099792480469 -7.002999782562256 L -64.10099792480469 -7 L -64.10099792480469 -3.997999906539917 L -60.900001525878906 -3.997999906539917 L -60.900001525878906 -7 L -60.900001525878906 -7.002999782562256 L -64.10099792480469 -7.002999782562256 z" fill="none" stroke="rgb(255,0,0)" stroke-width="0.001mm" />
</svg>