<?xml version="1.0" standalone="no"?>
<!DOCTYPE svg PUBLIC "-//W3C//DTD SVG 1.1//EN"
  "http://www.w3.org/Graphics/SVG/1.1/DTD/svg11.dtd">
<svg width="18mm" height="71mm" viewBox="68.5 -11 18 71" xmlns="http://www.w3.org/2000/svg" version="1.1">
	<title>svgOutput</title>
	<desc>made with tinkercad</desc>
<path d="M 85.5 59 L 85.00199890136719 59 L 83.49800109863281 59 L 75.90299987792969 59 L 72.6969985961914 59 L 72.50199890136719 59 L 72.50199890136719 56.00299835205078 L 72.6969985961914 56.00299835205078 L 75.90299987792969 56.00299835205078 L 75.90299987792969 56 L 75.90299987792969 52.99800109863281 L 72.6969985961914 52.99800109863281 L 72.50199890136719 52.99800109863281 L 72.50199890136719 43.402000427246094 L 69.5 43.402000427246094 L 69.5 30.799999237060547 L 72.50199890136719 30.799999237060547 L 72.50199890136719 18.198999404907227 L 69.5 18.198999404907227 L 69.5 5.5980000495910645 L 72.50199890136719 5.5980000495910645 L 72.50199890136719 -3.997999906539917 L 72.6969985961914 -3.997999906539917 L 75.90299987792969 -3.997999906539917 L 75.90299987792969 -7 L 75.90299987792969 -7.002999782562256 L 72.6969985961914 -7.002999782562256 L 72.50199890136719 -7.002999782562256 L 72.50199890136719 -10 L 72.6969985961914 -10 L 75.90299987792969 -10 L 83.49800109863281 -10 L 85.00199890136719 -10 L 85.5 -10 L 85.5 -7 L 85.5 5.5980000495910645 L 85.5 18.198999404907227 L 85.5 30.799999237060547 L 85.5 43.402000427246094 L 85.5 56 L 85.5 59 M 85.00199890136719 -3.997999906539917 L 85.00199890136719 -7 L 85.00199890136719 -7.002999782562256 L 83.49800109863281 -7.002999782562256 L 83.49800109863281 -7 L 83.49800109863281 -3.997999906539917 L 85.00199890136719 -3.997999906539917 M 79.49800109863281 -4.001999855041504 L 79.49800109863281 5.5980000495910645 L 79.49800109863281 18.198999404907227 L 79.49800109863281 30.799999237060547 L 79.49800109863281 43.402000427246094 L 79.49800109863281 53.00199890136719 L 82.50199890136719 53.00199890136719 L 82.50199890136719 43.402000427246094 L 82.50199890136719 30.799999237060547 L 82.50199890136719 18.198999404907227 L 82.50199890136719 5.5980000495910645 L 82.50199890136719 -4.001999855041504 L 79.49800109863281 -4.001999855041504 M 83.49800109863281 52.99800109863281 L 83.49800109863281 56 L 83.49800109863281 56.00299835205078 L 85.00199890136719 56.00299835205078 L 85.00199890136719 56 L 85.00199890136719 52.99800109863281 L 83.49800109863281 52.99800109863281 z" fill="none" stroke="rgb(255,0,0)" stroke-width="0.001mm" />
</svg>