<?xml version="1.0" standalone="no"?>
<!DOCTYPE svg PUBLIC "-//W3C//DTD SVG 1.1//EN"
  "http://www.w3.org/Graphics/SVG/1.1/DTD/svg11.dtd">
<svg width="18mm" height="64.99600112438202mm" viewBox="136 -1.9980000257492065 18 64.99600112438202" xmlns="http://www.w3.org/2000/svg" version="1.1">
	<title>svgOutput</title>
	<desc>made with tinkercad</desc>
<path d="M 153 24.198999404907227 L 149.9980010986328 24.198999404907227 L 149.9980010986328 36.80099868774414 L 153 36.80099868774414 L 153 49.402000427246094 L 149.9980010986328 49.402000427246094 L 149.9980010986328 58.99800109863281 L 149.80299377441406 58.99800109863281 L 146.59800720214844 58.99800109863281 L 146.59800720214844 61.99800109863281 L 143.0030059814453 61.99800109863281 L 139.9980010986328 61.99800109863281 L 139.0030059814453 61.99800109863281 L 139.0030059814453 58.99800109863281 L 137.4980010986328 58.99800109863281 L 137.4980010986328 61.99800109863281 L 137 61.99800109863281 L 137 49.402000427246094 L 137 36.80099868774414 L 137 24.198999404907227 L 137 11.597999572753906 L 137 -0.9980000257492064 L 137.4980010986328 -0.9980000257492064 L 137.4980010986328 2.003000020980835 L 139.0030059814453 2.003000020980835 L 139.0030059814453 -0.9980000257492064 L 139.9980010986328 -0.9980000257492064 L 143.0030059814453 -0.9980000257492064 L 146.59800720214844 -0.9980000257492064 L 146.59800720214844 2.003000020980835 L 149.80299377441406 2.003000020980835 L 149.9980010986328 2.003000020980835 L 149.9980010986328 11.597999572753906 L 153 11.597999572753906 L 153 24.198999404907227 M 139.9980010986328 36.80099868774414 L 139.9980010986328 49.402000427246094 L 139.9980010986328 59.00199890136719 L 143.0030059814453 59.00199890136719 L 143.0030059814453 49.402000427246094 L 143.0030059814453 36.80099868774414 L 143.0030059814453 24.198999404907227 L 143.0030059814453 11.597999572753906 L 143.0030059814453 1.9980000257492065 L 139.9980010986328 1.9980000257492065 L 139.9980010986328 11.597999572753906 L 139.9980010986328 24.198999404907227 L 139.9980010986328 36.80099868774414 z" fill="none" stroke="rgb(255,0,0)" stroke-width="0.001mm" />
</svg>